<svg xmlns="http://www.w3.org/2000/svg" version="1.1" xmlns:xlink="http://www.w3.org/1999/xlink" xmlns:svgjs="http://svgjs.com/svgjs" width="100%" height="100%" viewBox="0 0 1000 600"><rect width="1000" height="600" x="0" y="0" fill="#000000"/><g><circle r="166.66666666666666" cx="333.90310160319007" cy="356.12530405028417" fill="#dc143c" transform="matrix(0.7474448008243304,0,0,0.7474448008243303,0,33.81598160153948)"/><path d="M289.4073343367487 310.16114149326336L324.4830667935612 338.42121029733033L317.2241079438891 281.12530609457497L337.33862750443086 281.12530609457497Q344.15429115717643 281.12530609457497 347.5344170337413 284.0621367742133Q350.969954809922 286.99896745385166 349.97254061683725 293.8146311065972L349.97254061683725 293.8146311065972L343.5447602614024 338.9753292934885L389.536636942531 302.5697112458964L399.8432502710731 319.69198822718397Q401.3947834603159 322.2409356095116 402.1151381553216 324.0695282968336Q402.7800809507114 325.9535328837714 402.7800809507114 327.6713017718617L402.7800809507114 327.6713017718617Q402.7800809507114 330.4418967526526 401.1177239622369 333.04625603459607Q399.45536697376235 335.7060272161553 395.5765340006551 337.2575604053982L395.5765340006551 337.2575604053982L352.5214879991649 353.99195408937504L405.8831473291972 386.7403867623232L393.0275866183275 403.0868971489894Q388.927106046757 408.73891090980277 384.2725064790283 408.73891090980277L384.2725064790283 408.73891090980277Q381.94520669516396 408.73891090980277 379.7841426101471 407.7414967167181Q377.6230785251302 406.7994944232492 375.5174263397291 404.25054704092156L375.5174263397291 404.25054704092156L342.768993666781 370.3384644760412L350.360423914148 431.12531835459305L330.5229638516853 431.12531835459305Q324.2614191950979 431.12531835459305 320.93670521814886 428.79801857072874Q317.6674031408156 426.4707187868644 317.6674031408156 420.9849407248984L317.6674031408156 420.9849407248984Q317.6674031408156 419.6550551341188 324.4830667935612 369.9505811787305L324.4830667935612 369.9505811787305L279.0453091085908 409.1267942071135L268.1845767838906 392.0045172258259Q266.57763169503187 389.6218055423457 265.635629401563 387.5161533569447Q264.6382152084783 385.3550892719278 264.6382152084783 383.58190848422163L264.6382152084783 383.58190848422163Q264.6382152084783 381.0883730015098 266.30057219695277 378.65024941841386Q267.96292918542736 376.2121258353179 272.2296454558453 374.43894504761175L272.2296454558453 374.43894504761175L316.4483413492677 354.3798373866858L261.9230321273032 331.7717823434322L271.84176215853455 314.2616220648339Q274.00282624355145 310.5490247905741 276.33012602741576 308.9974916013312Q278.6574258112801 307.4459584120883 281.04013749476024 307.4459584120883L281.04013749476024 307.4459584120883Q282.7579063828506 307.4459584120883 285.02979426709913 307.9446655086307Q287.24627025173186 308.38796070555725 289.4073343367487 310.16114149326336L289.4073343367487 310.16114149326336Z " fill="#000000" transform="matrix(0.7474448008243304,0,0,0.7474448008243303,0,33.81598160153948)"/><path d="M666.7940233153042 291.30870852908197L666.7940233153042 291.30870852908197Q668.2418997667348 291.40523362584395 669.8104325891181 291.6224150935586Q671.3789654115012 291.81546528708265 672.6579229435984 292.4670096902264Q673.9368804756954 293.0944228191797 674.7814750723633 294.2527239803242Q675.6260696690312 295.3868938672782 675.6260696690312 297.17260815737603L675.6260696690312 297.17260815737603L675.6260696690312 300.6475116408095L606.6588880325518 399.5616045477126L619.1106255148552 399.5616045477126Q624.8056062238157 399.5616045477126 632.0208572067784 399.1755041606644Q639.2361081897411 398.81353504780674 646.7409344629899 397.9930717253294Q654.2457607362387 397.19673967704256 661.3162240740584 395.9660446933265Q668.4108186860685 394.7353497096105 673.9368804756954 392.9496354195127L673.9368804756954 392.9496354195127Q673.9368804756954 393.0461605162747 674.1299306692194 393.84249256456155Q674.3471121369341 394.6388246128484 674.6849499756013 396.0143072417075Q675.0227878142684 397.36565859637614 675.336494378745 399.1031103380929Q675.6260696690312 400.8405620798097 675.6260696690312 402.5297512731454L675.6260696690312 402.5297512731454Q675.6260696690312 406.94577445000886 672.6096603952174 409.11758912715476Q669.5932511214035 411.2652725301102 663.6569576705378 412.08573585258756Q657.7206642196722 412.88206790087446 649.0334055110884 412.8096740783029Q640.3220155283141 412.7131489815409 628.883791562012 412.7131489815409L628.883791562012 412.7131489815409Q622.6096602724792 412.7131489815409 616.5768417248516 412.64075515896934Q610.5440231772241 412.5442300622073 605.4281930488357 412.4235736912547Q600.2882316462569 412.3029173203022 596.3789652273942 412.08573585258756Q592.4938300827221 411.868554384873 590.5391968732906 411.53071654620584L590.5391968732906 411.53071654620584Q588.5845636638594 411.1928787075387 587.3056061317623 410.68612194953795Q586.0266485996651 410.1793651915372 585.2785790997593 409.35890186905993Q584.506378325663 408.56256982077304 584.2168030353769 407.283612288676Q583.9030964709002 406.00465475657893 583.9030964709002 404.2430717406716L583.9030964709002 404.2430717406716L583.9030964709002 401.2749250152388L650.9397761721387 303.4467394469088L630.8384247714434 303.4467394469088Q621.740934401621 303.54326454367083 614.9600463540874 305.06353481767303Q608.179158306554 306.5838050916751 603.690741307119 308.417781930154Q599.1781930334935 310.22762749444223 596.9822470821571 311.7720290426349Q594.76216985663 313.2922993166371 594.6897760340585 313.36469313920867L594.6897760340585 313.36469313920867Q594.1830192760578 312.85793638120794 592.8557991955797 310.782646800824Q591.5527103892921 308.7073572204401 590.1530964862425 306.29422980138906Q588.7534825831929 303.881102382338 587.6917065188104 301.661025156811Q586.629930454428 299.4650792054745 586.629930454428 298.6204846088067L586.629930454428 298.6204846088067Q586.629930454428 296.73824522194684 588.5845636638594 295.3386313188972Q590.5391968732906 293.9390174158476 593.8451814373907 293.0220289966082Q597.1511660014905 292.08090930317826 601.5913204525446 291.47762744841555Q606.0556061777891 290.8984768678432 611.0507799352247 290.5606390291761Q616.0700849668509 290.22280119050896 621.4030965629538 290.1262760937469Q626.7602394332471 290.0538822711754 631.8519382874449 290.0538822711754L631.8519382874449 290.0538822711754Q640.5874595444097 290.0538822711754 649.4918997207081 290.41585138403303Q658.3963398970066 290.80195177108124 666.7940233153042 291.30870852908197ZM708.7100465842212 301.99886299547813L720.510239663381 281.1253108206864L732.9619771456844 281.1253108206864Q733.8307030165428 281.1253108206864 734.7959539841632 281.31836101421055Q735.7612049517836 281.4872799335441 736.581668274261 281.8975115947828Q737.3780003225478 282.33187453021196 737.8847570805485 283.05581275592726Q738.3915138385493 283.75561970745207 738.3915138385493 284.9621834169776L738.3915138385493 284.9621834169776Q738.3915138385493 287.0857355457426 735.4233671131165 289.6195193357462L735.4233671131165 289.6195193357462Q734.6752976132105 290.39172010984254 733.3963400811135 291.6224150935586Q732.1173825490165 292.8531100772746 730.6453748233954 294.3733803512768Q729.1492358235837 295.89365062527895 727.5324404528195 297.6069710928052Q725.9397763562457 299.29616028614095 724.3229809854815 300.9129556569052L724.3229809854815 300.9129556569052Q720.5826334859524 304.79809080157736 716.3355292284226 309.1417201558693L716.3355292284226 309.1417201558693L710.2303168582233 309.1417201558693Q708.3722087455541 309.1417201558693 707.6482705198388 308.46604447853497Q706.9243322941234 307.76623752701016 706.9243322941234 306.8492491077708L706.9243322941234 306.8492491077708Q706.9243322941234 305.8357355917693 707.4793516005051 304.50851551129125Q708.0343709068869 303.2054267050037 708.7100465842212 301.99886299547813L708.7100465842212 301.99886299547813ZM724.3953748080531 327.96411402446756L724.3953748080531 403.03650803114607L739.1637146126455 403.03650803114607L739.1637146126455 409.4071644174409Q737.715838161215 410.1793651915372 735.2303169195924 410.8550408688715Q732.7206644037793 411.53071654620584 729.7042551299654 412.03747330420657Q726.6878458561516 412.5442300622073 723.3335987436707 412.8096740783029Q720.0034829053801 413.05098682020804 716.9388110831853 413.05098682020804L716.9388110831853 413.05098682020804Q714.3085021964197 413.05098682020804 712.1125562450832 412.7614115299219Q709.8924790195562 412.47183623963576 708.275683648792 411.5789790945869Q706.6830195522183 410.68612194953795 705.7418998587883 409.11758912715476Q704.8007801653584 407.54905630477157 704.8007801653584 404.9187474180059L704.8007801653584 404.9187474180059L704.8007801653584 333.32125689476095L689.8635214414325 333.32125689476095L689.8635214414325 326.95060050846615Q691.6492357315302 326.1783997343698 694.8828264730586 325.5027240570355Q698.0922859403966 324.8270483797012 701.9291585366877 324.392685444272Q705.7418998587883 323.9824537830333 709.7718226486037 323.7170097669377Q713.801745438419 323.4756970250326 717.1077300025189 323.4756970250326L717.1077300025189 323.4756970250326Q718.7245253732831 323.4756970250326 720.0758767279517 323.5239595734136Q721.4272280826202 323.5480908476041 722.4166103244312 323.9341912346523Q723.3818612920517 324.32029162170045 723.8886180500524 325.2614113151304Q724.3953748080531 326.1783997343698 724.3953748080531 327.96411402446756L724.3953748080531 327.96411402446756ZM828.1598538272488 398.64461612847316L840.5391974869807 390.319326532747L843.8451820510808 395.5799443062783Q842.5903557931741 398.5480910317111 839.9117843580274 401.6368941280965Q837.2332129228807 404.74982849867234 833.8789658103998 407.331874837057Q830.5247186979188 409.91392117544166 826.7602399241991 411.5789790945869Q822.971629876289 413.2199057395416 819.4967263928554 413.2199057395416L819.4967263928554 413.2199057395416Q817.3731742640905 413.2199057395416 815.6839850707548 412.32704859449274Q813.994795877419 411.4341914494438 812.5469194259884 409.23824549810735L812.5469194259884 409.23824549810735L790.6598537351953 376.4197125990129Q789.1395834611931 378.61565855034934 786.967768784047 381.53554272740115Q784.7959541069011 384.47955817864346 782.8171896232793 387.7855427427434Q780.8142938654669 391.0915273068434 779.3664174140363 394.5664307902769Q777.9426722367962 398.0413342737104 777.9426722367962 401.4438439345724L777.9426722367962 401.4438439345724Q777.9426722367962 404.2430717406716 779.0285795753691 406.53554278877016L779.0285795753691 406.53554278877016Q776.8326336240326 407.7903690466767 774.7573440436487 408.9969327562022Q772.6820544632648 410.1793651915372 770.6791587054524 411.0963536107767Q768.6762629476401 412.03747330420657 766.7457610123993 412.64075515896934Q764.7911278029679 413.2199057395416 762.8364945935365 413.2199057395416L762.8364945935365 413.2199057395416Q757.6482706425768 413.2199057395416 757.6482706425768 407.8868941434387L757.6482706425768 407.8868941434387Q757.6482706425768 404.48438448257673 760.1579231583898 400.0442300315228Q762.667575674203 395.5799443062783 766.6492359156372 390.4882454520806Q770.6308961570714 385.39654659788283 775.6502011886977 379.96700990501796Q780.6453749461333 374.5374732121531 785.7370738003311 369.10793651928816L785.7370738003311 369.10793651928816L765.9735602383029 339.088631426293L753.4976914818089 347.05195190916146L750.191706917709 341.7189403130586Q750.6260698531381 340.68129552286666 752.0980775787593 338.87144995857835Q753.5942165785709 337.03747312009955 755.6695061589548 334.9621835397157Q757.7447957393388 332.88689395933176 760.2785795293424 330.7633418305668Q762.8364945935365 328.6397897018019 765.5150660286832 326.9023379600851Q768.1695061896394 325.16488621836834 770.799815076405 324.05484760560483Q773.4301239631707 322.9689402670319 775.7225950112692 322.9689402670319L775.7225950112692 322.9689402670319Q777.0015525433663 322.9689402670319 778.1357224303202 323.5239595734136Q779.2940235914648 324.05484760560483 780.2351432848947 325.3338051377019L780.2351432848947 325.3338051377019Q786.2438305583318 333.9969325720952 791.2872668641486 341.5741526679156Q796.3548344441557 349.1755040379264 801.0845641854959 356.294229924127L801.0845641854959 356.294229924127Q805.1627495236921 351.03361215059573 807.3828267492191 347.48631484459065Q809.5787727005555 343.9148862643951 810.592286216557 341.55002139372505Q811.6057997325585 339.1610252488645 811.8229812002731 337.8096738941959Q812.0401626679876 336.45832253952733 812.0401626679876 335.61372794285944L812.0401626679876 335.61372794285944Q812.0401626679876 333.49017581409447 811.4368808132249 331.94577426590183Q810.8577302326527 330.42550399189963 810.4233672972234 329.3154653791362L810.4233672972234 329.3154653791362Q814.9117842966584 327.02299433103764 817.8557997479007 325.71990552475006Q820.7756839249525 324.392685444272 822.5613982150503 323.8135348636998Q824.3471125051481 323.210253008937 825.3123634727685 323.0895966379844Q826.3017457145795 322.9689402670319 826.9774213919137 322.9689402670319L826.9774213919137 322.9689402670319Q831.8036762300159 322.9689402670319 831.8036762300159 328.6397897018019L831.8036762300159 328.6397897018019Q831.8036762300159 332.21121828199745 829.4388113593459 336.45832253952733Q827.0498152144852 340.68129552286666 823.3335989891467 345.3145001674447Q819.5932514896175 349.9477048120228 815.0083093934205 354.65330327917235Q810.4233672972234 359.35890174632186 805.9349502977885 363.7749249231853L805.9349502977885 363.7749249231853L828.1598538272488 398.64461612847316ZM938.5363019746443 291.30870852908197L938.5363019746443 291.30870852908197Q939.984178426075 291.40523362584395 941.5527112484582 291.6224150935586Q943.1212440708414 291.81546528708265 944.3760703287479 292.4670096902264Q945.6550278608449 293.0944228191797 946.4996224575128 294.2527239803242Q947.3442170541808 295.3868938672782 947.3442170541808 297.17260815737603L947.3442170541808 297.17260815737603L947.3442170541808 300.6475116408095L878.3770354177014 399.5616045477126L890.8529041741954 399.5616045477126Q896.5478848831558 399.5616045477126 903.739004591928 399.1755041606644Q910.9542555748907 398.81353504780674 918.4590818481396 397.9930717253294Q925.9639081213883 397.19673967704256 933.0585027333984 395.9660446933265Q940.1530973454086 394.7353497096105 945.6550278608449 392.9496354195127L945.6550278608449 392.9496354195127Q945.6550278608449 393.0461605162747 945.8722093285595 393.84249256456155Q946.0893907962742 394.6388246128484 946.4272286349413 396.0143072417075Q946.7650664736085 397.36565859637614 947.0546417638947 399.1031103380929Q947.3442170541808 400.8405620798097 947.3442170541808 402.5297512731454L947.3442170541808 402.5297512731454Q947.3442170541808 406.94577445000886 944.3519390545574 409.11758912715476Q941.3355297807435 411.2652725301102 935.3992363298779 412.08573585258756Q929.4629428790124 412.88206790087446 920.751552896238 412.8096740783029Q912.0642941876541 412.7131489815409 900.6019389471617 412.7131489815409L900.6019389471617 412.7131489815409Q894.3278076576289 412.7131489815409 888.3191203841917 412.64075515896934Q882.2863018365641 412.5442300622073 877.1463404339853 412.4235736912547Q872.0305103055971 412.3029173203022 868.1212438867343 412.08573585258756Q864.2119774678716 411.868554384873 862.2573442584403 411.53071654620584L862.2573442584403 411.53071654620584Q860.302711049009 411.1928787075387 859.0478847911023 410.68612194953795Q857.7689272590053 410.1793651915372 856.9967264849089 409.35890186905993Q856.2486569850031 408.56256982077304 855.9349504205264 407.283612288676Q855.6453751302404 406.00465475657893 855.6453751302404 404.2430717406716L855.6453751302404 404.2430717406716L855.6453751302404 401.2749250152388L922.6579235572884 303.4467394469088L902.556572156593 303.4467394469088Q893.483213060961 303.54326454367083 886.7023250134275 305.06353481767303Q879.8973056917035 306.5838050916751 875.4088886922685 308.417781930154Q870.9204716928335 310.22762749444223 868.7003944673066 311.7720290426349Q866.5044485159702 313.2922993166371 866.4079234192081 313.36469313920867L866.4079234192081 313.36469313920867Q865.9011666612074 312.85793638120794 864.5980778549198 310.782646800824Q863.2708577744417 308.7073572204401 861.871243871392 306.29422980138906Q860.4716299683424 303.881102382338 859.4098539039601 301.661025156811Q858.3480778395775 299.4650792054745 858.3480778395775 298.6204846088067L858.3480778395775 298.6204846088067Q858.3480778395775 296.73824522194684 860.302711049009 295.3386313188972Q862.2573442584403 293.9390174158476 865.5633288225403 293.0220289966082Q868.8693133866401 292.08090930317826 873.3335991118846 291.47762744841555Q877.7978848371291 290.8984768678432 882.7930585945649 290.5606390291761Q887.7882323520006 290.22280119050896 893.1453752222939 290.1262760937469Q898.4783868183966 290.0538822711754 903.5700856725945 290.0538822711754L903.5700856725945 290.0538822711754Q912.3056069295593 290.0538822711754 921.2341783800483 290.41585138403303Q930.1386185563466 290.80195177108124 938.5363019746443 291.30870852908197ZM1043.386688332413 311.6031101233014L1036.0025184301167 328.6397897018019Q1040.9252983649808 331.53554260466314 1044.9069586064152 335.5654653944784Q1048.91275012204 339.5953881842937 1051.7119779281393 344.6388244901104Q1054.5112057342385 349.6822607959271 1056.0314760082406 355.6185542467927Q1057.5517462822427 361.5548476976584 1057.5517462822427 368.2633419226203L1057.5517462822427 368.2633419226203Q1057.5517462822427 378.61565855034934 1053.9561864278567 387.0857357912186Q1050.3364952992802 395.5799443062783 1044.0141014613664 401.61276285390596Q1037.7158388976432 407.62145012734317 1029.2216303825833 410.9033034172526Q1020.7274218675235 414.1610254329715 1011.0749121913193 414.1610254329715L1011.0749121913193 414.1610254329715Q1005.1386187404536 414.1610254329715 999.7090820475888 412.88206790087446L999.7090820475888 412.88206790087446L991.8905492098634 431.12531118890047L986.9677692749991 431.12531118890047Q984.265066565662 431.12531118890047 982.5517460981358 430.2324540438516Q980.8625569047999 429.33959689880265 980.8625569047999 427.5538826087049L980.8625569047999 427.5538826087049Q980.8625569047999 426.54036909270343 981.4658387595628 425.35793665736844L981.4658387595628 425.35793665736844L988.4880395490013 408.9969327562022Q983.0585028561364 406.27009877267454 978.6183484050824 402.19191343447824Q974.154062679838 398.1378593704724 970.9687344866906 392.9496354195127Q967.8075375677337 387.7855427427434 966.0700858260169 381.53554272740115Q964.3326340843003 375.3096739862494 964.3326340843003 368.2633419226203L964.3326340843003 368.2633419226203Q964.3326340843003 357.8386314723197 967.9764564870673 349.29616040887896Q971.6202788898345 340.7778206196287 977.8944101793671 334.72087079781056Q984.1685414688999 328.6397897018019 992.6868812581502 325.3338051377019Q1001.2293523215909 322.02782057360196 1011.0749121913193 322.02782057360196L1011.0749121913193 322.02782057360196Q1018.3625569968535 322.02782057360196 1025.1434450443871 323.9824537830333L1025.1434450443871 323.9824537830333L1032.9619778821125 305.8357355917693L1037.7882327202146 305.8357355917693Q1040.5150667037424 305.8357355917693 1042.252518445459 306.51141126910363Q1043.989970187176 307.18708694643794 1043.989970187176 309.1417201558693L1043.989970187176 309.1417201558693Q1043.989970187176 310.15523367187075 1043.386688332413 311.6031101233014L1043.386688332413 311.6031101233014ZM985.2785800816634 368.09442300328675L985.2785800816634 368.09442300328675Q985.2785800816634 376.9264693570136 986.9677692749991 384.76913346892957Q988.6569584683349 392.6117975808455 993.241900564532 397.87241535437687L993.241900564532 397.87241535437687L1021.2341786255244 332.9834190560938Q1016.7457616260892 331.10117966923394 1011.0749121913193 331.10117966923394L1011.0749121913193 331.10117966923394Q1003.2563793535938 331.10117966923394 998.3094681445392 334.1658514914288Q993.338425661294 337.2063920394331 990.4185414842422 342.3463534420119Q987.474526033 347.48631484459065 986.3886186944269 354.1706777953621Q985.2785800816634 360.87917202032406 985.2785800816634 368.09442300328675ZM1036.6058002848795 368.09442300328675L1036.6058002848795 368.09442300328675Q1036.6058002848795 360.37241526232333 1035.3268427527823 353.3260831986942Q1034.0478852206854 346.2797511350651 1030.669506834014 341.0432646357243L1030.669506834014 341.0432646357243L1003.5218233696895 404.14654664390963Q1006.996726853123 405.0876663373395 1011.0749121913193 405.0876663373395L1011.0749121913193 405.0876663373395Q1018.7969199322825 405.0876663373395 1023.7438311413374 402.02299451514466Q1028.7148736245827 398.9824539671403 1031.5623639790629 393.84249256456155Q1034.3857230593526 388.7025311619828 1035.495761672116 382.01816821121133Q1036.6058002848795 375.3096739862494 1036.6058002848795 368.09442300328675ZM1156.4658391891458 311.6031101233014L1149.10580056104 328.6397897018019Q1154.0044492217137 331.53554260466314 1158.0102407373383 335.5654653944784Q1161.9919009787727 339.5953881842937 1164.791128784872 344.6388244901104Q1167.5903565909712 349.6822607959271 1169.1106268649733 355.6185542467927Q1170.6550284131658 361.5548476976584 1170.6550284131658 368.2633419226203L1170.6550284131658 368.2633419226203Q1170.6550284131658 378.61565855034934 1167.0353372845893 387.0857357912186Q1163.4397774302033 395.5799443062783 1157.1173835922896 401.61276285390596Q1150.7949897543758 407.62145012734317 1142.3007812393162 410.9033034172526Q1133.830703998447 414.1610254329715 1124.1540630480522 414.1610254329715L1124.1540630480522 414.1610254329715Q1118.2177695971864 414.1610254329715 1112.7882329043216 412.88206790087446L1112.7882329043216 412.88206790087446L1104.969700066596 431.12531118890047L1100.0710514059224 431.12531118890047Q1097.3442174223946 431.12531118890047 1095.655028229059 430.2324540438516Q1093.9417077615328 429.33959689880265 1093.9417077615328 427.5538826087049L1093.9417077615328 427.5538826087049Q1093.9417077615328 426.54036909270343 1094.5449896162954 425.35793665736844L1094.5449896162954 425.35793665736844L1101.5913216799245 408.9969327562022Q1096.1617849870597 406.27009877267454 1091.6974992618152 402.19191343447824Q1087.2573448107614 398.1378593704724 1084.0720166176138 392.9496354195127Q1080.8866884244667 387.7855427427434 1079.1492366827497 381.53554272740115Q1077.4117849410331 375.3096739862494 1077.4117849410331 368.2633419226203L1077.4117849410331 368.2633419226203Q1077.4117849410331 357.8386314723197 1081.0556073438001 349.29616040887896Q1084.6994297465671 340.7778206196287 1090.9735610361 334.72087079781056Q1097.2476923256327 328.6397897018019 1105.7901633890733 325.3338051377019Q1114.3085031783237 322.02782057360196 1124.1540630480522 322.02782057360196L1124.1540630480522 322.02782057360196Q1131.4417078535862 322.02782057360196 1138.2467271753103 323.9824537830333L1138.2467271753103 323.9824537830333L1146.0411287388451 305.8357355917693L1150.8673835769473 305.8357355917693Q1153.594217560475 305.8357355917693 1155.3316693021918 306.51141126910363Q1157.0691210439086 307.18708694643794 1157.0691210439086 309.1417201558693L1157.0691210439086 309.1417201558693Q1157.0691210439086 310.15523367187075 1156.4658391891458 311.6031101233014L1156.4658391891458 311.6031101233014ZM1098.3577309383963 368.09442300328675L1098.3577309383963 368.09442300328675Q1098.3577309383963 376.9264693570136 1100.0710514059224 384.76913346892957Q1101.7602405992582 392.6117975808455 1106.3451826954552 397.87241535437687L1106.3451826954552 397.87241535437687L1134.3374607564474 332.9834190560938Q1129.8249124828221 331.10117966923394 1124.1540630480522 331.10117966923394L1124.1540630480522 331.10117966923394Q1116.3596614845171 331.10117966923394 1111.388619001272 334.1658514914288Q1106.4175765180266 337.2063920394331 1103.497692340975 342.3463534420119Q1100.5778081639232 347.48631484459065 1099.4677695511596 354.1706777953621Q1098.3577309383963 360.87917202032406 1098.3577309383963 368.09442300328675ZM1149.6849511416121 368.09442300328675L1149.6849511416121 368.09442300328675Q1149.6849511416121 360.37241526232333 1148.4059936095152 353.3260831986942Q1147.1511673516086 346.2797511350651 1143.7486576907468 341.0432646357243L1143.7486576907468 341.0432646357243L1116.6009742264223 404.14654664390963Q1120.0758777098558 405.0876663373395 1124.1540630480522 405.0876663373395L1124.1540630480522 405.0876663373395Q1131.8760707890156 405.0876663373395 1136.8471132722607 402.02299451514466Q1141.7940244813153 398.9824539671403 1144.6415148357955 393.84249256456155Q1147.4890051902757 388.7025311619828 1148.574912528849 382.01816821121133Q1149.6849511416121 375.3096739862494 1149.6849511416121 368.09442300328675Z " fill="#ffffff" transform="matrix(0.7474448008243304,0,0,0.7474448008243303,0,33.81598160153948)"/></g></svg>